<?xml version="1.0" encoding="UTF-8"?>
<svg id="Laag_1" xmlns="http://www.w3.org/2000/svg" viewBox="0 0 934.6 650.38"><defs><style>.cls-1,.cls-2{fill:#fff;}.cls-2{fill-rule:evenodd;}.cls-3{clip-path:url(#clippath-2);}.cls-4{clip-path:url(#clippath-1);}.cls-5{clip-path:url(#clippath);}.cls-6{fill:none;}.cls-7{clip-path:url(#clippath-3);}</style><clipPath id="clippath"><rect class="cls-6" x="-127.98" y="-95.75" width="1190.55" height="841.89"/></clipPath><clipPath id="clippath-1"><rect class="cls-6" x="-127.98" y="-95.71" width="1190.55" height="841.8"/></clipPath><clipPath id="clippath-2"><rect class="cls-6" x="-127.98" y="-95.71" width="1190.55" height="841.8"/></clipPath><clipPath id="clippath-3"><rect class="cls-6" x="-127.98" y="-95.75" width="1190.55" height="841.89"/></clipPath></defs><g class="cls-5"><g class="cls-4"><g class="cls-3"><g class="cls-7"><g><path class="cls-1" d="m420.86,163.39h-24.19v116.93h-46V2.11h46v118.54h21.33c19.76,0,24.59-11.29,24.59-31.05v-14.11c0-19.76-4.84-30.65-24.6-30.65h-6V2.1h8.86c44.76,0,67.75,25.81,67.75,70.56v19.76c0,45.16-23,71-67.74,71"/><path class="cls-1" d="m572.06,160.15v120.16h-46V2.1h46v115.31h66.13v42.74h-66.13Zm15.32-158h62.9v42.74h-62.9V2.15Zm0,235.47h62.9v42.74h-62.9v-42.74Z"/><path class="cls-1" d="m741.41,108.54v171.76h-44.35V2.09h41.13l49.2,132.25v96.77l-45.98-122.57ZM802.69,2.09h44.76v278.21h-44.74l-.02-278.21Z"/><rect class="cls-1" x="352.07" y="311.28" width="55.36" height="335.06"/><path class="cls-1" d="m464.72,568.64v-177.72c0-52,32-79.64,73.81-83v52.4c-11.65,3.4-18.45,13.6-18.45,28.65v179.67c0,14.57,6.8,25.25,18.45,28.16v52.93c-41.76-3.39-73.81-31.56-73.81-81.09m110.71-142.77v-36.9c0-15.05-7.29-25.25-18.45-28.65v-52.44c41.76,3.39,73.81,31.07,73.82,81.09v36.9h-55.37Zm-18.43,223.86v-52.93c11.16-2.91,18.45-13.59,18.45-28.16v-72.36h55.36v70.41c0,51.48-32,79.64-73.8,83"/><path class="cls-1" d="m727.91,646.33v-285.53h-63.14v-49.53h118.48v335.06h-55.34Zm73.8-335.11h44.67v49.53h-44.67v-49.53Z"/><path class="cls-1" d="m0,489.4V155.85C0,58.33,57.09,51.31,57.09,0l81.42,98.42c-21.87,6.38-34.63,25.52-34.62,53.77v337.19c0,27.34,12.76,47.39,34.63,52.86v99.33C60.16,635.22,0,582.35,0,489.4m173.17,152.18v-99.36c21-5.46,34.63-25.51,34.63-52.85V152.22c0-28.25-13.67-47.39-34.63-53.76L252.17.03c0,51.3,59.53,58.32,59.53,152.19v333.52c0,96.6-60.14,149.46-138.51,155.84"/><polygon class="cls-2" points="933.93 630.62 908.7 630.63 908.7 640.5 933.93 640.5 933.93 650.38 875.5 650.38 875.5 640.5 899.72 640.5 899.72 630.63 875.5 630.63 875.5 620.74 933.93 620.74 933.93 630.62"/><path class="cls-2" d="m889,590.59c-3.22,0-5.16,1.91-5.16,4.94s1.94,4.94,5.16,4.94h31.33c3.23,0,5.09-1.91,5.09-4.94s-1.86-4.94-5.09-4.94h-31.33Zm45.56,4.94c0,8.23-4.91,14.81-14.23,14.81h-31c-9.74,0-14.56-6.58-14.56-14.81s4.82-14.82,14.22-14.82h31c9.66,0,14.57,6.58,14.57,14.82"/><path class="cls-2" d="m934.6,555.84c0,8.23-4.91,14.82-14.23,14.82h-31c-9.74,0-14.57-6.58-14.57-14.81s4.83-14.83,14.23-14.83h4.23v9.89h-4.26c-3.22,0-5.16,1.9-5.16,4.94s1.94,4.93,5.16,4.93h31.33c3.23,0,5.09-1.91,5.09-4.94s-1.87-4.94-5.09-4.94h-10.66v5.55h-8.67v-15.43h19c9.65,0,14.57,6.59,14.57,14.82"/><polygon class="cls-2" points="933.93 530.63 875.5 530.63 875.5 503.94 884.47 503.94 884.48 520.75 899.71 520.75 899.71 506.54 908.69 506.54 908.69 520.75 924.95 520.75 924.95 503.94 933.93 503.94 933.93 530.63"/><path class="cls-2" d="m934.59,481.07c0,8.31-5.5,14.9-13.37,14.9h-4.07v-9.87h3.22c2.57.23,4.84-1.66,5.07-4.23.02-.26.03-.52,0-.77,0-3-1.86-4.93-5.08-4.93h-2c-2.52-.18-4.95.95-6.43,3l-9.65,11.78c-2.66,3.14-6.56,4.96-10.67,5h-2.88c-8.13,0-13.89-5.89-13.89-14.9s5.51-14.9,13.89-14.9h3.89v10h-3.89c-2.55-.12-4.71,1.85-4.84,4.39,0,.18,0,.36,0,.54-.08,2.68,2.02,4.91,4.7,5,.04,0,.09,0,.13,0h1.95c2.18.06,4.25-.99,5.5-2.78l9.66-11.78c3-3.64,6-5.37,10.67-5.37h4.57c7.79,0,13.54,6.67,13.54,14.9"/><path class="cls-2" d="m934.59,442.33c0,8.23-4.91,14.82-14.22,14.82h-31c-9.73,0-14.56-6.59-14.56-14.83s4.82-14.8,14.22-14.81h6.44v9.88h-6.47c-3.22,0-5.17,1.9-5.17,4.93s2,4.95,5.17,4.95h31.33c3.22,0,5.08-1.9,5.08-4.94s-1.86-4.94-5.08-4.94h-7.11v-9.87h6.78c9.65,0,14.56,6.59,14.56,14.81"/><polygon class="cls-2" points="933.92 397.36 908.69 397.36 908.69 407.25 933.92 407.24 933.92 417.12 875.49 417.12 875.49 407.25 899.71 407.25 899.71 397.36 875.49 397.36 875.49 387.49 933.92 387.49 933.92 397.36"/><path class="cls-2" d="m889,357.33c-3.22,0-5.16,1.91-5.16,4.94s1.94,4.95,5.16,4.95h31.33c3.23,0,5.09-1.92,5.09-4.95s-1.86-4.94-5.09-4.94h-31.33Zm45.56,4.94c0,8.24-4.91,14.82-14.23,14.82h-31c-9.74,0-14.56-6.58-14.56-14.82s4.82-14.82,14.22-14.82h31c9.66,0,14.57,6.59,14.57,14.82"/><path class="cls-2" d="m889,317.65c-3.22,0-5.16,1.9-5.16,4.93s1.94,4.95,5.16,4.95h31.33c3.22,0,5.09-1.92,5.09-4.95s-1.87-4.93-5.09-4.93h-31.33Zm45.56,4.93c0,8.23-4.91,14.82-14.23,14.82h-31c-9.74,0-14.57-6.59-14.57-14.82s4.83-14.81,14.23-14.81h31c9.65,0,14.57,6.59,14.57,14.81"/><polygon class="cls-2" points="933.92 297.38 875.49 297.38 875.49 287.5 924.94 287.5 924.94 270.68 933.92 270.68 933.92 297.38"/><path class="cls-2" d="m934.37,245.42c0,8.15-4.91,14.73-14.23,14.73h-44.88v-9.87h44.87c3.22,0,5.09-1.91,5.09-4.86s-1.87-5-5.09-5h-44.87v-9.9h44.54c9.65,0,14.57,6.58,14.57,14.9"/><polygon class="cls-2" points="883.89 202.96 933.69 202.96 933.69 212.84 883.9 212.85 883.9 224.11 875.26 224.11 875.26 191.7 883.89 191.7 883.89 202.96"/><path class="cls-2" d="m890.67,165.71c-4.16,0-6.44,1-6.44,5.28v4.59h15.92v-4.59c0-4.24-2.37-5.28-6.52-5.28h-2.96Zm43,0h-18.12c-4.24,0-6.43,1-6.43,5.28v4.59h24.55v9.88h-58.42v-15.07c0-9.62,5.41-14.56,14.81-14.56h4.16c5.07,0,8.46,1.56,10.32,4.94,1.69-3.38,4.91-4.94,10.33-4.94h18.8v9.88Z"/><polygon class="cls-2" points="933.69 145.43 875.26 145.43 875.26 118.74 884.23 118.74 884.23 135.55 899.48 135.55 899.48 121.34 908.45 121.34 908.45 135.55 924.71 135.55 924.71 118.74 933.69 118.74 933.69 145.43"/><path class="cls-2" d="m934.36,94.22c0,8.22-4.91,14.81-14.23,14.81h-31c-9.74,0-14.57-6.59-14.57-14.81s4.83-14.82,14.23-14.82h6.44v9.88h-6.44c-3.22,0-5.17,1.9-5.17,4.94s2,4.93,5.17,4.93h31.33c3.21,0,5.08-1.9,5.08-4.93s-1.87-4.94-5.08-4.94h-7.12v-9.88h6.78c9.66,0,14.57,6.58,14.57,14.82"/><polygon class="cls-2" points="933.68 49.26 908.45 49.26 908.45 59.13 933.68 59.13 933.68 69.01 875.26 69.02 875.25 59.13 899.47 59.13 899.47 49.26 875.25 49.26 875.25 39.38 933.68 39.38 933.68 49.26"/><polygon class="cls-2" points="883.89 11.83 933.68 11.83 933.68 21.7 883.89 21.71 883.89 32.97 875.25 32.97 875.25 .56 883.89 .56 883.89 11.83"/></g></g></g></g></g></svg>